<svg xmlns="http://www.w3.org/2000/svg" width="192" height="192" viewBox="0 0 192 192" shape-rendering="crispEdges">
<rect x="12" y="24" width="34" height="9" fill="#3D4450" stroke="#1C1E24" stroke-width="2"/>
<rect x="39" y="26" width="10" height="5" fill="#8993A3" stroke="#1C1E24" stroke-width="1"/>
<polygon points="22,33 33,33 29,52 20,52" fill="#2B2F38" stroke="#1C1E24" stroke-width="2"/>
<rect x="14" y="27" width="5" height="3" fill="#57A6D8"/>
<polygon points="74,21 112,21 117,29 111,36 76,36" fill="#3D4450" stroke="#1C1E24" stroke-width="2"/>
<rect x="106" y="24" width="11" height="7" fill="#8993A3" stroke="#1C1E24" stroke-width="1"/>
<polygon points="87,36 100,36 95,54 84,54" fill="#2B2F38" stroke="#1C1E24" stroke-width="2"/>
<rect x="78" y="23" width="8" height="3" fill="#FFD36A"/>
<rect x="139" y="27" width="42" height="10" fill="#3D4450" stroke="#1C1E24" stroke-width="2"/>
<polygon points="132,25 143,27 142,39 133,43" fill="#8B5A2B" stroke="#1C1E24" stroke-width="2"/>
<rect x="178" y="29" width="11" height="5" fill="#8993A3" stroke="#1C1E24" stroke-width="1"/>
<polygon points="157,37 167,37 170,55 161,57 155,42" fill="#2B2F38" stroke="#1C1E24" stroke-width="2"/>
<rect x="145" y="29" width="9" height="6" fill="#A86C36"/>
<rect x="8" y="90" width="47" height="11" fill="#3D4450" stroke="#1C1E24" stroke-width="2"/>
<polygon points="2,91 11,92 11,101 3,104" fill="#2B2F38" stroke="#1C1E24" stroke-width="2"/>
<rect x="53" y="93" width="9" height="5" fill="#8993A3" stroke="#1C1E24" stroke-width="1"/>
<rect x="29" y="101" width="8" height="18" fill="#2B2F38" stroke="#1C1E24" stroke-width="2"/>
<rect x="17" y="92" width="8" height="4" fill="#57A6D8"/>
<rect x="68" y="93" width="54" height="8" fill="#2B2F38" stroke="#1C1E24" stroke-width="2"/>
<rect x="117" y="95" width="10" height="3" fill="#8993A3" stroke="#1C1E24" stroke-width="1"/>
<polygon points="69,100 95,100 90,111 76,112" fill="#355A43" stroke="#1C1E24" stroke-width="2"/>
<rect x="90" y="85" width="18" height="7" fill="#3D4450" stroke="#1C1E24" stroke-width="2"/>
<rect x="95" y="81" width="9" height="4" fill="#8993A3" stroke="#1C1E24" stroke-width="1"/>
<circle cx="159" cy="99" r="15" fill="#2B2F38" stroke="#1C1E24" stroke-width="2"/>
<rect x="150" y="93" width="18" height="5" fill="#FFD36A"/>
<rect x="155" y="79" width="9" height="9" fill="#3D4450" stroke="#1C1E24" stroke-width="2"/>
<polygon points="163,81 175,76 178,79 166,85" fill="#8993A3" stroke="#1C1E24" stroke-width="1"/>
<rect x="21" y="144" width="22" height="34" fill="#3D4450" stroke="#1C1E24" stroke-width="2"/>
<rect x="21" y="156" width="22" height="6" fill="#57A6D8"/>
<rect x="25" y="140" width="14" height="7" fill="#2B2F38" stroke="#1C1E24" stroke-width="2"/>
<circle cx="47" cy="148" r="5" fill="none" stroke="#8993A3" stroke-width="2"/>
<rect x="87" y="143" width="18" height="37" fill="#8993A3" stroke="#1C1E24" stroke-width="2"/>
<rect x="87" y="158" width="18" height="6" fill="#FFD36A"/>
<rect x="91" y="139" width="10" height="7" fill="#3D4450" stroke="#1C1E24" stroke-width="2"/>
<rect x="91" y="149" width="3" height="2" fill="#2B2F38"/>
<rect x="91" y="154" width="3" height="2" fill="#2B2F38"/>
<rect x="91" y="169" width="3" height="2" fill="#2B2F38"/>
<rect x="91" y="174" width="3" height="2" fill="#2B2F38"/>
<polygon points="151,148 169,148 172,178 148,178" fill="#6FA3B8" stroke="#1C1E24" stroke-width="2"/>
<rect x="151" y="162" width="18" height="14" fill="#6C2D24"/>
<rect x="155" y="143" width="10" height="7" fill="#2B2F38" stroke="#1C1E24" stroke-width="2"/>
<polygon points="159,143 165,134 167,145" fill="#E06A3B" stroke="#1C1E24" stroke-width="1"/>
</svg>